<?xml version="1.0" encoding="utf-8"?>
<svg viewBox="0 0 500 500" xmlns="http://www.w3.org/2000/svg">
  <path style="fill: rgb(216, 216, 216); stroke: rgb(0, 0, 0); fill-opacity: 0;" d="M 136.309 108.565 C 128.646 108.565 130.096 157.718 131.484 164.656 C 132.86 171.536 137.411 179.289 139.928 185.163 C 143.825 194.255 149.365 198.61 153.8 207.479 C 165.782 231.442 154.403 267.004 154.403 292.521"/>
  <path style="fill: rgb(216, 216, 216); stroke: rgb(0, 0, 0); fill-opacity: 0;" d="M 172.497 148.372 C 172.497 174.646 179.223 195.509 185.766 220.748 C 186.711 224.394 191.062 274.955 189.385 281.665 C 186.565 292.946 179.962 304.129 175.513 313.028"/>
  <path style="fill: rgb(216, 216, 216); stroke: rgb(0, 0, 0); fill-opacity: 0;" d="M 144.15 116.405 C 146.871 124.568 144.753 136.63 144.753 145.356 C 144.753 162.533 146.087 177.68 151.99 194.21 C 163.88 227.501 196.076 253.054 202.051 288.902 C 204.896 305.972 204.463 323.585 204.463 341.375"/>
  <path style="fill: rgb(216, 216, 216); stroke: rgb(0, 0, 0); fill-opacity: 0;" d="M 302.774 140.531 C 302.774 149.985 297.169 156.566 293.727 163.45 C 282.924 185.058 269.581 205.701 256.333 225.573 C 235.622 256.639 227.986 298.71 227.986 336.55"/>
  <path style="fill: rgb(216, 216, 216); stroke: rgb(0, 0, 0); fill-opacity: 0;" d="M 191.194 172.497 C 191.194 188.25 198.907 195.763 205.669 209.288 C 211.345 220.64 234.705 256.503 240.048 267.189 C 242.667 272.427 257.29 312.172 258.142 317.853 C 260.732 335.119 145.959 305.709 145.959 323.281"/>
  <path style="fill: rgb(216, 216, 216); stroke: rgb(0, 0, 0); fill-opacity: 0;" d="M 268.999 114.596 C 267.898 114.596 263.558 126.905 262.967 129.071 C 259.371 142.256 248.484 153.585 244.27 167.069 C 229.357 214.79 222.259 262.615 218.938 312.425 C 218.238 322.927 211.701 338.497 211.701 346.803"/>
  <ellipse style="fill: rgb(216, 216, 216); stroke: rgb(0, 0, 0);" cx="142.34" cy="104.041" rx="7.238" ry="7.539"/>
  <ellipse style="fill: rgb(216, 216, 216); stroke: rgb(0, 0, 0);" cx="173.402" cy="151.99" rx="8.745" ry="9.047"/>
  <ellipse style="fill: rgb(216, 216, 216); stroke: rgb(0, 0, 0);" cx="186.972" cy="171.592" rx="1.809" ry="1.508"/>
  <ellipse style="fill: rgb(216, 216, 216); stroke: rgb(0, 0, 0);" cx="194.21" cy="172.195" rx="9.047" ry="8.745"/>
  <ellipse style="fill: rgb(216, 216, 216); stroke: rgb(0, 0, 0);" cx="267.491" cy="112.183" rx="7.539" ry="7.841"/>
  <ellipse style="fill: rgb(216, 216, 216); stroke: rgb(0, 0, 0);" cx="302.171" cy="139.626" rx="5.428" ry="5.73"/>
  <ellipse style="fill: rgb(216, 216, 216); stroke: rgb(0, 0, 0);" cx="144.451" cy="118.818" rx="5.127" ry="4.825"/>
  <rect x="115.2" y="287.694" width="191.195" height="57.901" style="fill: rgb(216, 216, 216); stroke: rgb(0, 0, 0); transform-box: fill-box; transform-origin: 50% 50%;" transform="matrix(0.999987, -0.005175, 0.001424, 1.000006, -0.001322, 0.002217)"/>
</svg>